<svg height="512pt" viewBox="0 -32 512 511" width="512pt" xmlns="http://www.w3.org/2000/svg"><path stroke="black" stroke-width="40" stroke-linecap="round" stroke-linejoin="round" d="m456.835938.5h-401.667969c-30.421875 0-55.167969 24.746094-55.167969 55.164062v337.402344c0 30.417969 24.746094 55.167969 55.167969 55.167969h401.667969c30.417968 0 55.164062-24.75 55.164062-55.167969v-337.402344c0-30.417968-24.746094-55.164062-55.164062-55.164062zm0 30c1.25 0 2.476562.09375 3.679687.273438l-186.71875 186.71875c-9.8125 9.8125-25.78125 9.8125-35.59375 0l-186.71875-186.71875c1.203125-.179688 2.429687-.273438 3.683594-.273438zm25.164062 362.566406c0 13.878906-11.289062 25.167969-25.164062 25.167969h-401.667969c-13.878907 0-25.167969-11.289063-25.167969-25.167969v-337.398437c0-1.253907.09375-2.480469.269531-3.683594l186.722657 186.71875c10.753906 10.757813 24.878906 16.132813 39.007812 16.132813s28.253906-5.375 39.007812-16.132813l186.722657-186.71875c.175781 1.203125.269531 2.433594.269531 3.683594zm0 0"/></svg>